<svg width="46" height="24" viewBox="0 0 46 24" fill="none" xmlns="http://www.w3.org/2000/svg">
<path fill-rule="evenodd" clip-rule="evenodd" d="M42.8961 11.8296C42.8961 11.2909 42.8031 10.7886 42.617 10.3227C42.4309 9.85681 42.1769 9.44914 41.8548 9.0997C41.5327 8.75027 41.157 8.47727 40.7276 8.28072C40.2981 8.08418 39.8401 7.98589 39.3534 7.98589C38.8668 7.98589 38.4087 8.08418 37.9793 8.28072C37.5499 8.47727 37.1741 8.75027 36.8521 9.0997C36.53 9.44914 36.2759 9.85681 36.0898 10.3227C35.9037 10.7886 35.8107 11.2909 35.8107 11.8296C35.8107 12.3684 35.9037 12.8707 36.0898 13.3366C36.2759 13.8025 36.53 14.2101 36.8521 14.5596C37.1741 14.909 37.5499 15.182 37.9793 15.3786C38.4087 15.5751 38.8668 15.6734 39.3534 15.6734C39.8401 15.6734 40.2981 15.5751 40.7276 15.3786C41.157 15.182 41.5327 14.909 41.8548 14.5596C42.1769 14.2101 42.4309 13.8025 42.617 13.3366C42.8031 12.8707 42.8961 12.3684 42.8961 11.8296ZM45.988 11.8296C45.988 12.776 45.8162 13.6532 45.4727 14.4613C45.1291 15.2694 44.6568 15.9683 44.0556 16.5579C43.4544 17.1476 42.7494 17.6135 41.9407 17.9556C41.1319 18.2978 40.2695 18.4689 39.3534 18.4689C38.4373 18.4689 37.5785 18.2978 36.7769 17.9556C35.9753 17.6135 35.2739 17.1439 34.6727 16.547C34.0715 15.95 33.5992 15.2475 33.2557 14.4394C32.9121 13.6314 32.7403 12.7615 32.7403 11.8296C32.7403 10.9124 32.9157 10.0497 33.2664 9.24165C33.6171 8.43359 34.093 7.72744 34.6942 7.12322C35.2954 6.51898 35.9968 6.04579 36.7984 5.70365C37.5999 5.36151 38.4516 5.19043 39.3534 5.19043C40.2695 5.19043 41.1319 5.36151 41.9407 5.70365C42.7494 6.04579 43.4544 6.51171 44.0556 7.10138C44.6568 7.69105 45.1291 8.39355 45.4727 9.20889C45.8162 10.0242 45.988 10.8978 45.988 11.8296ZM31.6668 18.0758C31.4234 18.1922 31.1479 18.2868 30.8402 18.3597C30.5324 18.4324 30.2139 18.4689 29.8847 18.4689C29.4266 18.4689 28.9865 18.407 28.5642 18.2832C28.142 18.1594 27.7734 17.9593 27.4585 17.6826C27.1436 17.406 26.8931 17.0457 26.707 16.6016C26.5209 16.1575 26.4278 15.6224 26.4278 14.9964V0.0144424H29.5841V14.4504C29.5841 14.9745 29.6879 15.3349 29.8954 15.5314C30.103 15.728 30.3499 15.8263 30.6362 15.8263C30.994 15.8263 31.3376 15.7171 31.6668 15.4987V18.0758ZM25.0322 5.49618L19.4498 20.4999C19.0347 21.621 18.4907 22.4291 17.818 22.9241C17.1452 23.4191 16.3436 23.6667 15.4132 23.6667C15.2701 23.6667 15.1126 23.6557 14.9409 23.6339C14.7691 23.6121 14.6045 23.5793 14.447 23.5356L13.4164 20.6091C13.6597 20.7256 13.9103 20.8166 14.1679 20.8821C14.4256 20.9476 14.6689 20.9804 14.8979 20.9804C15.3846 20.9804 15.8283 20.8676 16.2291 20.6419C16.6299 20.4162 16.9377 19.9976 17.1524 19.3861L17.5818 18.1194L12.7938 5.49618H16.1647L19.0203 13.6205L21.7042 5.49616H25.0322V5.49618ZM12.0422 3.59615H3.96916V7.65829H11.9349V10.4101H3.96916V18.1413H0.705566V0.69148H12.0422V3.59615Z" fill="black"/>
</svg>
